<svg width="16" height="19" viewBox="0 0 16 19" fill="none" xmlns="http://www.w3.org/2000/svg">
<path id="Vector" d="M9.07667 1.38748C9.77192 0.595178 10.7438 0.0987883 11.7933 0C11.8693 1.05963 11.5267 2.10681 10.8392 2.91667C10.5164 3.32827 10.1029 3.65975 9.63092 3.88524C9.159 4.11074 8.64134 4.22416 8.11834 4.21667C8.08125 3.70501 8.14701 3.19111 8.31159 2.70523C8.47617 2.21936 8.73625 1.77131 9.07667 1.38748ZM14.3224 16.0583C13.5599 17.175 12.7683 18.2875 11.5183 18.3083C10.2683 18.3292 9.89334 17.5792 8.49334 17.5792C7.09334 17.5792 6.65164 18.2875 5.48914 18.3333C4.32664 18.3792 3.36414 17.125 2.57247 16.0125C0.997472 13.7333 -0.206687 9.57917 1.40998 6.775C1.78995 6.09626 2.33934 5.52757 3.00461 5.12446C3.66987 4.72136 4.42828 4.4976 5.20581 4.475C6.38915 4.475 7.50584 5.27502 8.23084 5.27502C8.95584 5.27502 10.3142 4.28752 11.7392 4.44168C12.4055 4.45902 13.0586 4.63152 13.6467 4.94542C14.2347 5.25933 14.7414 5.706 15.1267 6.25C14.5293 6.61742 14.0343 7.12967 13.6876 7.73931C13.3409 8.34892 13.1537 9.03625 13.1433 9.7375C13.1481 10.5288 13.3836 11.3015 13.821 11.9609C14.2584 12.6204 14.8787 13.1379 15.6058 13.45C15.3073 14.3773 14.875 15.2561 14.3224 16.0583Z" fill="white"/>
</svg>
