<svg width="16" height="16" viewBox="0 0 16 16" fill="none" xmlns="http://www.w3.org/2000/svg">
<g id="ic / error-16">
<path id="Vector (Stroke)" fill-rule="evenodd" clip-rule="evenodd" d="M7.14188 1.73972C7.40396 1.59217 7.69965 1.51465 8.00042 1.51465C8.30119 1.51465 8.59688 1.59217 8.85897 1.73972C9.12105 1.88728 9.34068 2.09989 9.49667 2.35705L9.49787 2.35903L15.148 11.7914C15.3008 12.056 15.3816 12.3561 15.3824 12.6617C15.3833 12.9672 15.3041 13.2677 15.1528 13.5332C15.0015 13.7986 14.7833 14.0199 14.5199 14.1748C14.2566 14.3298 13.9572 14.4131 13.6517 14.4165L13.6471 14.4165L2.34917 14.4165C2.04362 14.4131 1.74428 14.3298 1.48092 14.1748C1.21756 14.0199 0.999366 13.7986 0.848048 13.5332C0.696729 13.2677 0.617559 12.9672 0.618415 12.6617C0.619271 12.3561 0.700122 12.0561 0.852925 11.7915L0.856264 11.7857L6.50298 2.35903L6.50417 2.35705C6.66016 2.09989 6.87979 1.88728 7.14188 1.73972ZM8.00042 2.34798C7.84288 2.34798 7.68799 2.38859 7.55071 2.46588C7.41372 2.543 7.29888 2.65405 7.21721 2.78836C7.21703 2.78865 7.21685 2.78894 7.21667 2.78924L1.57307 12.2108C1.49401 12.3488 1.45219 12.5049 1.45175 12.664C1.4513 12.824 1.49277 12.9814 1.57203 13.1205C1.65129 13.2596 1.76558 13.3754 1.90353 13.4566C2.04088 13.5374 2.19692 13.581 2.35624 13.5831H13.6446C13.8039 13.581 13.96 13.5374 14.0973 13.4566C14.2353 13.3754 14.3496 13.2596 14.4288 13.1205C14.5081 12.9814 14.5495 12.824 14.5491 12.664C14.5487 12.5049 14.5068 12.3488 14.4278 12.2108L8.78417 2.78924C8.78399 2.78894 8.78381 2.78865 8.78363 2.78836C8.70196 2.65405 8.58712 2.543 8.45014 2.46588C8.31285 2.38859 8.15797 2.34798 8.00042 2.34798Z" fill="#E01B41"/>
<path id="Vector (Stroke)_2" fill-rule="evenodd" clip-rule="evenodd" d="M8.00004 5.5835C8.23016 5.5835 8.41671 5.77004 8.41671 6.00016V9.3335C8.41671 9.56361 8.23016 9.75016 8.00004 9.75016C7.76992 9.75016 7.58337 9.56361 7.58337 9.3335V6.00016C7.58337 5.77004 7.76992 5.5835 8.00004 5.5835Z" fill="#E01B41"/>
<path id="Vector (Stroke)_3" fill-rule="evenodd" clip-rule="evenodd" d="M7.58337 11.3332C7.58337 11.1031 7.76992 10.9165 8.00004 10.9165H8.00671C8.23683 10.9165 8.42337 11.1031 8.42337 11.3332C8.42337 11.5633 8.23683 11.7498 8.00671 11.7498H8.00004C7.76992 11.7498 7.58337 11.5633 7.58337 11.3332Z" fill="#E01B41"/>
</g>
</svg>
