<svg width="21" height="20" viewBox="0 0 21 20" fill="none" xmlns="http://www.w3.org/2000/svg">
<g id="SVG">
<path id="Vector" d="M18.5017 10.1996C18.5017 9.6369 18.4473 9.0559 18.3565 8.51123H10.4954V11.7247H14.9978C14.8163 12.7596 14.2171 13.6673 13.3275 14.2482L16.0145 16.3361C17.5939 14.8656 18.5017 12.7232 18.5017 10.1996Z" fill="#4280EF"/>
<path id="Vector_2" d="M10.4953 18.3336C12.7466 18.3336 14.6347 17.5892 16.0145 16.3184L13.3275 14.2487C12.5832 14.757 11.6209 15.0475 10.4953 15.0475C8.31672 15.0475 6.48307 13.577 5.81133 11.6162L3.05176 13.7404C4.46786 16.5544 7.33636 18.3336 10.4953 18.3336Z" fill="#34A353"/>
<path id="Vector_3" d="M5.81137 11.5978C5.46643 10.563 5.46643 9.43741 5.81137 8.40258L3.0518 6.26025C1.87173 8.62041 1.87173 11.3982 3.0518 13.7402L5.81137 11.5978Z" fill="#F6B704"/>
<path id="Vector_4" d="M10.4953 4.97105C11.6754 4.95289 12.8373 5.40676 13.6907 6.22375L16.0689 3.82727C14.5621 2.41118 12.565 1.64866 10.4953 1.66682C7.33636 1.66682 4.46786 3.44602 3.05176 6.26005L5.81133 8.40234C6.48307 6.42345 8.31672 4.97105 10.4953 4.97105Z" fill="#E54335"/>
</g>
</svg>
